<svg width="1281" height="1920" viewBox="0 0 1281 1920" fill="none" xmlns="http://www.w3.org/2000/svg">
<rect width="1280.03" height="1920" fill="url(#paint0_linear_3534_9131)"/>
<rect width="1280.03" height="1920" fill="url(#paint1_linear_3534_9131)"/>
<rect width="1280.03" height="1920" fill="url(#paint2_linear_3534_9131)" fill-opacity="0.3"/>
<path d="M203.421 160.788C203.421 155.642 201.377 150.706 197.738 147.067C194.099 143.428 189.163 141.384 184.017 141.384H154.911V214.15H188.868C192.728 214.15 196.43 215.683 199.159 218.413C201.888 221.142 203.421 224.843 203.421 228.703M203.421 160.788V228.703M203.421 160.788C203.421 155.642 205.466 150.706 209.105 147.067C212.744 143.428 217.679 141.384 222.826 141.384H251.932V214.15H217.975C214.115 214.15 210.413 215.683 207.684 218.413C204.955 221.142 203.421 224.843 203.421 228.703M329.549 204.447V146.235C329.549 143.661 330.571 141.194 332.391 139.374C334.21 137.555 336.678 136.532 339.251 136.532H392.613M329.549 204.447C329.549 201.874 330.571 199.406 332.391 197.587C334.21 195.767 336.678 194.745 339.251 194.745H344.102M329.549 204.447C329.549 207.02 330.571 209.488 332.391 211.308C334.21 213.127 336.678 214.149 339.251 214.149H344.102M426.57 214.149H373.208C370.635 214.149 368.168 215.172 366.348 216.991C364.529 218.811 363.506 221.278 363.506 223.852M363.506 223.852C363.506 226.425 364.529 228.892 366.348 230.712C368.168 232.531 370.635 233.554 373.208 233.554H426.57V155.937H373.208C370.635 155.937 368.168 156.959 366.348 158.778C364.529 160.598 363.506 163.066 363.506 165.639V223.852ZM552.698 228.703C552.698 220.456 546.391 214.15 538.145 214.15H504.187V141.384H533.293C543.966 141.384 552.698 150.116 552.698 160.788M552.698 228.703V160.788M552.698 228.703C552.698 220.456 559.004 214.15 567.251 214.15H601.208V202.993M552.698 160.788C552.698 150.116 561.43 141.384 572.102 141.384H601.208V155.937M572.102 185.044L581.804 194.746L601.208 175.342M688.529 221.426V148.66C688.529 145.444 689.806 142.359 692.081 140.085C694.355 137.81 697.44 136.532 700.656 136.532H737.039M688.529 221.426C688.529 224.642 689.806 227.727 692.081 230.002C694.355 232.276 697.44 233.554 700.656 233.554H766.145V165.639M688.529 221.426C688.529 218.21 689.806 215.125 692.081 212.85C694.355 210.576 697.44 209.298 700.656 209.298H766.145M766.145 136.532L744.316 158.362M761.294 141.384L766.145 146.235M863.167 221.426V148.66C863.167 145.444 864.444 142.359 866.719 140.085C868.993 137.81 872.078 136.532 875.294 136.532H940.784V233.554H875.294C872.078 233.554 868.993 232.276 866.719 230.002C864.444 227.727 863.167 224.642 863.167 221.426ZM863.167 221.426C863.167 218.21 864.444 215.125 866.719 212.85C868.993 210.576 872.078 209.298 875.294 209.298H940.784M892.273 136.532V175.341L906.826 160.788L921.379 175.341V136.532M1037.8 221.426V148.66C1037.8 145.444 1039.08 142.359 1041.36 140.085C1043.63 137.81 1046.72 136.532 1049.93 136.532H1115.42V233.554H1049.93C1046.72 233.554 1043.63 232.276 1041.36 230.002C1039.08 227.727 1037.8 224.642 1037.8 221.426ZM1037.8 221.426C1037.8 218.21 1039.08 215.125 1041.36 212.85C1043.63 210.576 1046.72 209.298 1049.93 209.298H1115.42M1062.06 175.341H1091.17M1076.61 160.788V189.894M164.611 442.842V370.076C164.611 366.86 165.888 363.775 168.163 361.501C170.437 359.226 173.522 357.949 176.738 357.949M164.611 442.842C164.611 446.059 165.888 449.143 168.163 451.418C170.437 453.692 173.522 454.97 176.738 454.97H242.227V357.949H232.525M164.611 442.842C164.611 439.626 165.888 436.541 168.163 434.267C170.437 431.992 173.522 430.714 176.738 430.714H242.227M203.419 411.31V382.204M203.419 382.204L188.866 396.757M203.419 382.204L217.972 396.757M188.866 372.502L203.419 357.949L217.972 372.502M416.869 454.97H407.167M416.869 421.012V430.714H407.167M339.252 442.842V421.012M339.252 442.842C339.252 446.059 340.53 449.143 342.804 451.418C345.079 453.692 348.163 454.97 351.38 454.97H358.656M339.252 442.842C339.252 439.626 340.53 436.541 342.804 434.267C345.079 431.992 348.163 430.714 351.38 430.714H358.656M416.869 387.055V401.608M407.167 357.949H416.869V367.651M339.252 401.608V391.906M378.061 357.949H387.763M378.061 454.97H387.763M378.061 430.714H387.763M339.252 372.502V370.076C339.252 366.86 340.53 363.775 342.804 361.501C345.079 359.226 348.163 357.949 351.38 357.949H358.656M552.694 382.204C552.694 377.058 550.65 372.123 547.011 368.484C543.372 364.845 538.436 362.8 533.29 362.8H504.184V435.566H538.141C542.001 435.566 545.702 437.099 548.432 439.829C551.161 442.558 552.694 446.26 552.694 450.119M552.694 382.204V450.119M552.694 382.204C552.694 377.058 554.739 372.123 558.378 368.484C562.017 364.845 566.952 362.8 572.098 362.8H601.205V435.566H567.247C563.388 435.566 559.686 437.099 556.957 439.829C554.227 442.558 552.694 446.26 552.694 450.119M678.822 425.863V367.651C678.822 365.078 679.844 362.61 681.663 360.79C683.483 358.971 685.951 357.949 688.524 357.949H741.885M678.822 425.863C678.822 423.29 679.844 420.822 681.663 419.003C683.483 417.183 685.951 416.161 688.524 416.161H693.375M678.822 425.863C678.822 428.437 679.844 430.904 681.663 432.724C683.483 434.543 685.951 435.566 688.524 435.566H693.375M775.843 435.566H722.481C719.908 435.566 717.44 436.588 715.621 438.407C713.801 440.227 712.779 442.695 712.779 445.268M712.779 445.268C712.779 447.841 713.801 450.309 715.621 452.128C717.44 453.948 719.908 454.97 722.481 454.97H775.843V377.353H722.481C719.908 377.353 717.44 378.375 715.621 380.195C713.801 382.014 712.779 384.482 712.779 387.055V445.268ZM901.97 450.119C901.97 441.873 895.664 435.566 887.417 435.566H853.46V362.8H882.566C893.239 362.8 901.97 371.532 901.97 382.204M901.97 450.119V382.204M901.97 450.119C901.97 441.873 908.277 435.566 916.524 435.566H950.481V424.409M901.97 382.204C901.97 371.532 910.702 362.8 921.375 362.8H950.481V377.353M921.375 406.46L931.077 416.162L950.481 396.758M1037.8 442.842V370.076C1037.8 366.86 1039.08 363.775 1041.36 361.501C1043.63 359.226 1046.72 357.949 1049.93 357.949H1086.32M1037.8 442.842C1037.8 446.059 1039.08 449.143 1041.36 451.418C1043.63 453.692 1046.72 454.97 1049.93 454.97H1115.42V387.055M1037.8 442.842C1037.8 439.626 1039.08 436.541 1041.36 434.267C1043.63 431.992 1046.72 430.714 1049.93 430.714H1115.42M1115.42 357.949L1093.59 379.778M1110.57 362.8L1115.42 367.651M164.614 664.258V591.492C164.614 588.276 165.892 585.191 168.166 582.917C170.441 580.642 173.525 579.365 176.742 579.365H242.231V676.386H176.742C173.525 676.386 170.441 675.108 168.166 672.834C165.892 670.559 164.614 667.475 164.614 664.258ZM164.614 664.258C164.614 661.042 165.892 657.957 168.166 655.683C170.441 653.408 173.525 652.131 176.742 652.131H242.231M193.72 579.365V618.173L208.274 603.62L222.827 618.173V579.365M339.252 664.258V591.492C339.252 588.276 340.53 585.191 342.804 582.917C345.079 580.642 348.163 579.365 351.38 579.365H416.869V676.386H351.38C348.163 676.386 345.079 675.108 342.804 672.834C340.53 670.559 339.252 667.475 339.252 664.258ZM339.252 664.258C339.252 661.042 340.53 657.957 342.804 655.683C345.079 653.408 348.163 652.131 351.38 652.131H416.869M363.508 618.173H392.614M378.061 603.62V632.726M513.89 664.258V591.492C513.89 588.276 515.168 585.191 517.443 582.917C519.717 580.642 522.802 579.365 526.018 579.365M513.89 664.258C513.89 667.475 515.168 670.559 517.443 672.834C519.717 675.108 522.802 676.386 526.018 676.386H591.507V579.365H581.805M513.89 664.258C513.89 661.042 515.168 657.957 517.443 655.683C519.717 653.408 522.802 652.131 526.018 652.131H591.507M552.699 632.726V603.62M552.699 603.62L538.146 618.173M552.699 603.62L567.252 618.173M538.146 593.918L552.699 579.365L567.252 593.918M766.145 676.386H756.443M766.145 642.428V652.131H756.443M688.529 664.258V642.428M688.529 664.258C688.529 667.475 689.806 670.559 692.081 672.834C694.355 675.108 697.44 676.386 700.656 676.386H707.933M688.529 664.258C688.529 661.042 689.806 657.957 692.081 655.683C694.355 653.408 697.44 652.131 700.656 652.131H707.933M766.145 608.471V623.024M756.443 579.365H766.145V589.067M688.529 623.024V613.322M727.337 579.365H737.039M727.337 676.386H737.039M727.337 652.131H737.039M688.529 593.918V591.492C688.529 588.276 689.806 585.191 692.081 582.917C694.355 580.642 697.44 579.365 700.656 579.365H707.933M901.97 603.621C901.97 598.474 899.926 593.539 896.287 589.9C892.648 586.261 887.713 584.216 882.566 584.216H853.46V656.982H887.417C891.277 656.982 894.979 658.516 897.708 661.245C900.437 663.974 901.97 667.676 901.97 671.535M901.97 603.621V671.535M901.97 603.621C901.97 598.474 904.015 593.539 907.654 589.9C911.293 586.261 916.228 584.216 921.375 584.216H950.481V656.982H916.524C912.664 656.982 908.962 658.516 906.233 661.245C903.504 663.974 901.97 667.676 901.97 671.535M1028.1 647.28V589.067C1028.1 586.494 1029.12 584.026 1030.94 582.206C1032.76 580.387 1035.23 579.365 1037.8 579.365H1091.16M1028.1 647.28C1028.1 644.706 1029.12 642.239 1030.94 640.419C1032.76 638.6 1035.23 637.577 1037.8 637.577H1042.65M1028.1 647.28C1028.1 649.853 1029.12 652.32 1030.94 654.14C1032.76 655.959 1035.23 656.982 1037.8 656.982H1042.65M1125.12 656.982H1071.76C1069.18 656.982 1066.72 658.004 1064.9 659.823C1063.08 661.643 1062.06 664.111 1062.06 666.684M1062.06 666.684C1062.06 669.257 1063.08 671.725 1064.9 673.544C1066.72 675.364 1069.18 676.386 1071.76 676.386H1125.12V598.769H1071.76C1069.18 598.769 1066.72 599.791 1064.9 601.611C1063.08 603.43 1062.06 605.898 1062.06 608.471V666.684ZM203.418 892.951C203.418 884.705 197.111 878.398 188.865 878.398H154.907V805.632H184.014C194.686 805.632 203.418 814.364 203.418 825.037M203.418 892.951V825.037M203.418 892.951C203.418 884.705 209.724 878.398 217.971 878.398H251.928V867.241M203.418 825.037C203.418 814.364 212.15 805.632 222.822 805.632H251.928V820.186M222.822 849.292L232.524 858.994L251.928 839.59M339.252 885.674V812.908C339.252 809.692 340.53 806.607 342.804 804.333C345.079 802.059 348.163 800.781 351.38 800.781H387.763M339.252 885.674C339.252 888.891 340.53 891.976 342.804 894.25C345.079 896.524 348.163 897.802 351.38 897.802H416.869V829.887M339.252 885.674C339.252 882.458 340.53 879.373 342.804 877.099C345.079 874.824 348.163 873.547 351.38 873.547H416.869M416.869 800.781L395.039 822.611M412.018 805.632L416.869 810.483M513.89 885.674V812.908C513.89 809.692 515.168 806.607 517.443 804.333C519.717 802.059 522.802 800.781 526.018 800.781H591.507V897.802H526.018C522.802 897.802 519.717 896.524 517.443 894.25C515.168 891.976 513.89 888.891 513.89 885.674ZM513.89 885.674C513.89 882.458 515.168 879.373 517.443 877.099C519.717 874.824 522.802 873.547 526.018 873.547H591.507M542.997 800.781V839.589L557.55 825.036L572.103 839.589V800.781M688.529 885.674V812.908C688.529 809.692 689.806 806.607 692.081 804.333C694.355 802.059 697.44 800.781 700.656 800.781H766.145V897.802H700.656C697.44 897.802 694.355 896.524 692.081 894.25C689.806 891.976 688.529 888.891 688.529 885.674ZM688.529 885.674C688.529 882.458 689.806 879.373 692.081 877.099C694.355 874.824 697.44 873.547 700.656 873.547H766.145M712.784 839.589H741.89M727.337 825.036V854.142M863.167 885.674V812.908C863.167 809.692 864.444 806.607 866.719 804.333C868.993 802.059 872.078 800.781 875.294 800.781M863.167 885.674C863.167 888.891 864.444 891.976 866.719 894.25C868.993 896.524 872.078 897.802 875.294 897.802H940.784V800.781H931.082M863.167 885.674C863.167 882.458 864.444 879.373 866.719 877.099C868.993 874.824 872.078 873.547 875.294 873.547H940.784M901.975 854.142V825.036M901.975 825.036L887.422 839.589M901.975 825.036L916.528 839.589M887.422 815.334L901.975 800.781L916.528 815.334M1115.42 897.802H1105.72M1115.42 863.845V873.547H1105.72M1037.8 885.674V863.845M1037.8 885.674C1037.8 888.891 1039.08 891.976 1041.36 894.25C1043.63 896.524 1046.72 897.802 1049.93 897.802H1057.21M1037.8 885.674C1037.8 882.458 1039.08 879.373 1041.36 877.099C1043.63 874.824 1046.72 873.547 1049.93 873.547H1057.21M1115.42 829.887V844.44M1105.72 800.781H1115.42V810.483M1037.8 844.44V834.738M1076.61 800.781H1086.32M1076.61 897.802H1086.32M1076.61 873.547H1086.32M1037.8 815.334V812.908C1037.8 809.692 1039.08 806.607 1041.36 804.333C1043.63 802.059 1046.72 800.781 1049.93 800.781H1057.21M203.418 1046.45C203.418 1041.31 201.373 1036.37 197.734 1032.73C194.095 1029.09 189.16 1027.05 184.014 1027.05H154.907V1099.81H188.865C192.724 1099.81 196.426 1101.35 199.155 1104.08C201.885 1106.81 203.418 1110.51 203.418 1114.37M203.418 1046.45V1114.37M203.418 1046.45C203.418 1041.31 205.462 1036.37 209.101 1032.73C212.74 1029.09 217.676 1027.05 222.822 1027.05H251.928V1099.81H217.971C214.111 1099.81 210.41 1101.35 207.68 1104.08C204.951 1106.81 203.418 1110.51 203.418 1114.37M329.545 1090.11V1031.9C329.545 1029.33 330.568 1026.86 332.387 1025.04C334.207 1023.22 336.674 1022.2 339.247 1022.2H392.609M329.545 1090.11C329.545 1087.54 330.568 1085.07 332.387 1083.25C334.207 1081.43 336.674 1080.41 339.247 1080.41H344.099M329.545 1090.11C329.545 1092.68 330.568 1095.15 332.387 1096.97C334.207 1098.79 336.674 1099.81 339.247 1099.81H344.099M426.567 1099.81H373.205C370.632 1099.81 368.164 1100.84 366.344 1102.66C364.525 1104.48 363.503 1106.94 363.503 1109.52M363.503 1109.52C363.503 1112.09 364.525 1114.56 366.344 1116.38C368.164 1118.2 370.632 1119.22 373.205 1119.22H426.567V1041.6H373.205C370.632 1041.6 368.164 1042.62 366.344 1044.44C364.525 1046.26 363.503 1048.73 363.503 1051.3V1109.52ZM552.694 1114.37C552.694 1106.12 546.388 1099.81 538.141 1099.81H504.184V1027.05H533.29C543.962 1027.05 552.694 1035.78 552.694 1046.45M552.694 1114.37V1046.45M552.694 1114.37C552.694 1106.12 559.001 1099.81 567.247 1099.81H601.205V1088.66M552.694 1046.45C552.694 1035.78 561.426 1027.05 572.098 1027.05H601.205V1041.6M572.098 1070.71L581.8 1080.41L601.205 1061.01M688.529 1107.09V1034.32C688.529 1031.11 689.806 1028.02 692.081 1025.75C694.355 1023.47 697.44 1022.2 700.656 1022.2H737.039M688.529 1107.09C688.529 1110.31 689.806 1113.39 692.081 1115.67C694.355 1117.94 697.44 1119.22 700.656 1119.22H766.145V1051.3M688.529 1107.09C688.529 1103.87 689.806 1100.79 692.081 1098.51C694.355 1096.24 697.44 1094.96 700.656 1094.96H766.145M766.145 1022.2L744.316 1044.03M761.294 1027.05L766.145 1031.9M863.167 1107.09V1034.32C863.167 1031.11 864.444 1028.02 866.719 1025.75C868.993 1023.47 872.078 1022.2 875.294 1022.2H940.784V1119.22H875.294C872.078 1119.22 868.993 1117.94 866.719 1115.67C864.444 1113.39 863.167 1110.31 863.167 1107.09ZM863.167 1107.09C863.167 1103.87 864.444 1100.79 866.719 1098.51C868.993 1096.24 872.078 1094.96 875.294 1094.96H940.784M892.273 1022.2V1061.01L906.826 1046.45L921.379 1061.01V1022.2M1037.8 1107.09V1034.32C1037.8 1031.11 1039.08 1028.02 1041.36 1025.75C1043.63 1023.47 1046.72 1022.2 1049.93 1022.2H1115.42V1119.22H1049.93C1046.72 1119.22 1043.63 1117.94 1041.36 1115.67C1039.08 1113.39 1037.8 1110.31 1037.8 1107.09ZM1037.8 1107.09C1037.8 1103.87 1039.08 1100.79 1041.36 1098.51C1043.63 1096.24 1046.72 1094.96 1049.93 1094.96H1115.42M1062.06 1061.01H1091.17M1076.61 1046.45V1075.56M164.614 1328.51V1255.74C164.614 1252.53 165.892 1249.44 168.166 1247.17C170.441 1244.89 173.525 1243.61 176.742 1243.61M164.614 1328.51C164.614 1331.72 165.892 1334.81 168.166 1337.08C170.441 1339.36 173.525 1340.64 176.742 1340.64H242.231V1243.61H232.529M164.614 1328.51C164.614 1325.29 165.892 1322.21 168.166 1319.93C170.441 1317.66 173.525 1316.38 176.742 1316.38H242.231M203.423 1296.98V1267.87M203.423 1267.87L188.869 1282.42M203.423 1267.87L217.976 1282.42M188.869 1258.17L203.423 1243.61L217.976 1258.17M416.869 1340.64H407.167M416.869 1306.68V1316.38H407.167M339.252 1328.51V1306.68M339.252 1328.51C339.252 1331.72 340.53 1334.81 342.804 1337.08C345.079 1339.36 348.163 1340.64 351.38 1340.64H358.656M339.252 1328.51C339.252 1325.29 340.53 1322.21 342.804 1319.93C345.079 1317.66 348.163 1316.38 351.38 1316.38H358.656M416.869 1272.72V1287.27M407.167 1243.61H416.869V1253.32M339.252 1287.27V1277.57M378.061 1243.61H387.763M378.061 1340.64H387.763M378.061 1316.38H387.763M339.252 1258.17V1255.74C339.252 1252.53 340.53 1249.44 342.804 1247.17C345.079 1244.89 348.163 1243.61 351.38 1243.61H358.656M552.694 1267.87C552.694 1262.72 550.65 1257.79 547.011 1254.15C543.372 1250.51 538.436 1248.46 533.29 1248.46H504.184V1321.23H538.141C542.001 1321.23 545.702 1322.76 548.432 1325.49C551.161 1328.22 552.694 1331.92 552.694 1335.78M552.694 1267.87V1335.78M552.694 1267.87C552.694 1262.72 554.739 1257.79 558.378 1254.15C562.017 1250.51 566.952 1248.46 572.098 1248.46H601.205V1321.23H567.247C563.388 1321.23 559.686 1322.76 556.957 1325.49C554.227 1328.22 552.694 1331.92 552.694 1335.78M678.822 1311.53V1253.32C678.822 1250.74 679.844 1248.28 681.663 1246.46C683.483 1244.64 685.951 1243.61 688.524 1243.61H741.885M678.822 1311.53C678.822 1308.96 679.844 1306.49 681.663 1304.67C683.483 1302.85 685.951 1301.83 688.524 1301.83H693.375M678.822 1311.53C678.822 1314.1 679.844 1316.57 681.663 1318.39C683.483 1320.21 685.951 1321.23 688.524 1321.23H693.375M775.843 1321.23H722.481C719.908 1321.23 717.44 1322.25 715.621 1324.07C713.801 1325.89 712.779 1328.36 712.779 1330.93M712.779 1330.93C712.779 1333.51 713.801 1335.97 715.621 1337.79C717.44 1339.61 719.908 1340.64 722.481 1340.64H775.843V1263.02H722.481C719.908 1263.02 717.44 1264.04 715.621 1265.86C713.801 1267.68 712.779 1270.15 712.779 1272.72V1330.93ZM901.97 1335.78C901.97 1327.54 895.664 1321.23 887.417 1321.23H853.46V1248.46H882.566C893.239 1248.46 901.97 1257.2 901.97 1267.87M901.97 1335.78V1267.87M901.97 1335.78C901.97 1327.54 908.277 1321.23 916.524 1321.23H950.481V1310.07M901.97 1267.87C901.97 1257.2 910.702 1248.46 921.375 1248.46H950.481V1263.02M921.375 1292.12L931.077 1301.83L950.481 1282.42M1037.8 1328.51V1255.74C1037.8 1252.53 1039.08 1249.44 1041.36 1247.17C1043.63 1244.89 1046.72 1243.61 1049.93 1243.61H1086.32M1037.8 1328.51C1037.8 1331.72 1039.08 1334.81 1041.36 1337.08C1043.63 1339.36 1046.72 1340.64 1049.93 1340.64H1115.42V1272.72M1037.8 1328.51C1037.8 1325.29 1039.08 1322.21 1041.36 1319.93C1043.63 1317.66 1046.72 1316.38 1049.93 1316.38H1115.42M1115.42 1243.61L1093.59 1265.44M1110.57 1248.46L1115.42 1253.32M164.614 1549.92V1477.16C164.614 1473.94 165.892 1470.86 168.166 1468.58C170.441 1466.31 173.525 1465.03 176.742 1465.03H242.231V1562.05H176.742C173.525 1562.05 170.441 1560.77 168.166 1558.5C165.892 1556.22 164.614 1553.14 164.614 1549.92ZM164.614 1549.92C164.614 1546.71 165.892 1543.62 168.166 1541.35C170.441 1539.07 173.525 1537.8 176.742 1537.8H242.231M193.72 1465.03V1503.84L208.274 1489.29L222.827 1503.84V1465.03M339.252 1549.92V1477.16C339.252 1473.94 340.53 1470.86 342.804 1468.58C345.079 1466.31 348.163 1465.03 351.38 1465.03H416.869V1562.05H351.38C348.163 1562.05 345.079 1560.77 342.804 1558.5C340.53 1556.22 339.252 1553.14 339.252 1549.92ZM339.252 1549.92C339.252 1546.71 340.53 1543.62 342.804 1541.35C345.079 1539.07 348.163 1537.8 351.38 1537.8H416.869M363.508 1503.84H392.614M378.061 1489.29V1518.39M513.89 1549.92V1477.16C513.89 1473.94 515.168 1470.86 517.443 1468.58C519.717 1466.31 522.802 1465.03 526.018 1465.03M513.89 1549.92C513.89 1553.14 515.168 1556.22 517.443 1558.5C519.717 1560.77 522.802 1562.05 526.018 1562.05H591.507V1465.03H581.805M513.89 1549.92C513.89 1546.71 515.168 1543.62 517.443 1541.35C519.717 1539.07 522.802 1537.8 526.018 1537.8H591.507M552.699 1518.39V1489.29M552.699 1489.29L538.146 1503.84M552.699 1489.29L567.252 1503.84M538.146 1479.58L552.699 1465.03L567.252 1479.58M766.145 1562.05H756.443M766.145 1528.09V1537.8H756.443M688.529 1549.92V1528.09M688.529 1549.92C688.529 1553.14 689.806 1556.22 692.081 1558.5C694.355 1560.77 697.44 1562.05 700.656 1562.05H707.933M688.529 1549.92C688.529 1546.71 689.806 1543.62 692.081 1541.35C694.355 1539.07 697.44 1537.8 700.656 1537.8H707.933M766.145 1494.14V1508.69M756.443 1465.03H766.145V1474.73M688.529 1508.69V1498.99M727.337 1465.03H737.039M727.337 1562.05H737.039M727.337 1537.8H737.039M688.529 1479.58V1477.16C688.529 1473.94 689.806 1470.86 692.081 1468.58C694.355 1466.31 697.44 1465.03 700.656 1465.03H707.933M901.97 1489.29C901.97 1484.14 899.926 1479.2 896.287 1475.56C892.648 1471.93 887.713 1469.88 882.566 1469.88H853.46V1542.65H887.417C891.277 1542.65 894.979 1544.18 897.708 1546.91C900.437 1549.64 901.97 1553.34 901.97 1557.2M901.97 1489.29V1557.2M901.97 1489.29C901.97 1484.14 904.015 1479.2 907.654 1475.56C911.293 1471.93 916.228 1469.88 921.375 1469.88H950.481V1542.65H916.524C912.664 1542.65 908.962 1544.18 906.233 1546.91C903.504 1549.64 901.97 1553.34 901.97 1557.2M1028.1 1532.94V1474.73C1028.1 1472.16 1029.12 1469.69 1030.94 1467.87C1032.76 1466.05 1035.23 1465.03 1037.8 1465.03H1091.16M1028.1 1532.94C1028.1 1530.37 1029.12 1527.9 1030.94 1526.08C1032.76 1524.26 1035.23 1523.24 1037.8 1523.24H1042.65M1028.1 1532.94C1028.1 1535.52 1029.12 1537.99 1030.94 1539.81C1032.76 1541.62 1035.23 1542.65 1037.8 1542.65H1042.65M1125.12 1542.65H1071.76C1069.18 1542.65 1066.72 1543.67 1064.9 1545.49C1063.08 1547.31 1062.06 1549.78 1062.06 1552.35M1062.06 1552.35C1062.06 1554.92 1063.08 1557.39 1064.9 1559.21C1066.72 1561.03 1069.18 1562.05 1071.76 1562.05H1125.12V1484.43H1071.76C1069.18 1484.43 1066.72 1485.46 1064.9 1487.28C1063.08 1489.1 1062.06 1491.56 1062.06 1494.14V1552.35ZM203.418 1778.62C203.418 1770.37 197.111 1764.06 188.865 1764.06H154.907V1691.3H184.014C194.686 1691.3 203.418 1700.03 203.418 1710.7M203.418 1778.62V1710.7M203.418 1778.62C203.418 1770.37 209.724 1764.06 217.971 1764.06H251.928V1752.91M203.418 1710.7C203.418 1700.03 212.15 1691.3 222.822 1691.3H251.928V1705.85M222.822 1734.96L232.524 1744.66L251.928 1725.25M339.252 1771.34V1698.57C339.252 1695.36 340.53 1692.27 342.804 1690C345.079 1687.72 348.163 1686.45 351.38 1686.45H387.763M339.252 1771.34C339.252 1774.56 340.53 1777.64 342.804 1779.92C345.079 1782.19 348.163 1783.47 351.38 1783.47H416.869V1715.55M339.252 1771.34C339.252 1768.12 340.53 1765.04 342.804 1762.76C345.079 1760.49 348.163 1759.21 351.38 1759.21H416.869M416.869 1686.45L395.039 1708.28M412.018 1691.3L416.869 1696.15M513.89 1771.34V1698.57C513.89 1695.36 515.168 1692.27 517.443 1690C519.717 1687.72 522.802 1686.45 526.018 1686.45H591.507V1783.47H526.018C522.802 1783.47 519.717 1782.19 517.443 1779.92C515.168 1777.64 513.89 1774.56 513.89 1771.34ZM513.89 1771.34C513.89 1768.12 515.168 1765.04 517.443 1762.76C519.717 1760.49 522.802 1759.21 526.018 1759.21H591.507M542.997 1686.45V1725.25L557.55 1710.7L572.103 1725.25V1686.45M688.529 1771.34V1698.57C688.529 1695.36 689.806 1692.27 692.081 1690C694.355 1687.72 697.44 1686.45 700.656 1686.45H766.145V1783.47H700.656C697.44 1783.47 694.355 1782.19 692.081 1779.92C689.806 1777.64 688.529 1774.56 688.529 1771.34ZM688.529 1771.34C688.529 1768.12 689.806 1765.04 692.081 1762.76C694.355 1760.49 697.44 1759.21 700.656 1759.21H766.145M712.784 1725.25H741.89M727.337 1710.7V1739.81M863.167 1771.34V1698.57C863.167 1695.36 864.444 1692.27 866.719 1690C868.993 1687.72 872.078 1686.45 875.294 1686.45M863.167 1771.34C863.167 1774.56 864.444 1777.64 866.719 1779.92C868.993 1782.19 872.078 1783.47 875.294 1783.47H940.784V1686.45H931.082M863.167 1771.34C863.167 1768.12 864.444 1765.04 866.719 1762.76C868.993 1760.49 872.078 1759.21 875.294 1759.21H940.784M901.975 1739.81V1710.7M901.975 1710.7L887.422 1725.25M901.975 1710.7L916.528 1725.25M887.422 1701L901.975 1686.45L916.528 1701M1115.42 1783.47H1105.72M1115.42 1749.51V1759.21H1105.72M1037.8 1771.34V1749.51M1037.8 1771.34C1037.8 1774.56 1039.08 1777.64 1041.36 1779.92C1043.63 1782.19 1046.72 1783.47 1049.93 1783.47H1057.21M1037.8 1771.34C1037.8 1768.12 1039.08 1765.04 1041.36 1762.76C1043.63 1760.49 1046.72 1759.21 1049.93 1759.21H1057.21M1115.42 1715.55V1730.11M1105.72 1686.45H1115.42V1696.15M1037.8 1730.11V1720.4M1076.61 1686.45H1086.32M1076.61 1783.47H1086.32M1076.61 1759.21H1086.32M1037.8 1701V1698.57C1037.8 1695.36 1039.08 1692.27 1041.36 1690C1043.63 1687.72 1046.72 1686.45 1049.93 1686.45H1057.21M746.741 165.639C746.741 170.997 742.397 175.341 737.039 175.341C731.681 175.341 727.337 170.997 727.337 165.639C727.337 160.28 731.681 155.937 737.039 155.937C742.397 155.937 746.741 160.28 746.741 165.639ZM1096.02 387.055C1096.02 392.413 1091.67 396.757 1086.32 396.757C1080.96 396.757 1076.61 392.413 1076.61 387.055C1076.61 381.697 1080.96 377.353 1086.32 377.353C1091.67 377.353 1096.02 381.697 1096.02 387.055ZM397.465 829.887C397.465 835.245 393.121 839.589 387.763 839.589C382.404 839.589 378.061 835.245 378.061 829.887C378.061 824.529 382.404 820.185 387.763 820.185C393.121 820.185 397.465 824.529 397.465 829.887ZM746.741 1051.3C746.741 1056.66 742.397 1061.01 737.039 1061.01C731.681 1061.01 727.337 1056.66 727.337 1051.3C727.337 1045.94 731.681 1041.6 737.039 1041.6C742.397 1041.6 746.741 1045.94 746.741 1051.3ZM1096.02 1272.72C1096.02 1278.08 1091.67 1282.42 1086.32 1282.42C1080.96 1282.42 1076.61 1278.08 1076.61 1272.72C1076.61 1267.36 1080.96 1263.02 1086.32 1263.02C1091.67 1263.02 1096.02 1267.36 1096.02 1272.72ZM397.465 1715.55C397.465 1720.91 393.121 1725.25 387.763 1725.25C382.404 1725.25 378.061 1720.91 378.061 1715.55C378.061 1710.19 382.404 1705.85 387.763 1705.85C393.121 1705.85 397.465 1710.19 397.465 1715.55Z" stroke="#D2D2D2" stroke-width="7.27659" stroke-linecap="round" stroke-linejoin="round"/>
<defs>
<linearGradient id="paint0_linear_3534_9131" x1="-36" y1="-55" x2="1136" y2="2505" gradientUnits="userSpaceOnUse">
<stop stop-color="#F4F4F5"/>
<stop offset="1" stop-color="#E1E1E1"/>
</linearGradient>
<linearGradient id="paint1_linear_3534_9131" x1="0" y1="938.494" x2="80" y2="938.494" gradientUnits="userSpaceOnUse">
<stop stop-color="white"/>
<stop offset="0.171875" stop-color="#F1F1F1"/>
<stop offset="0.375" stop-color="#EEEEEE"/>
<stop offset="0.59375" stop-color="#E5E5E5"/>
<stop offset="0.78125" stop-color="#E2E2E2"/>
<stop offset="1" stop-color="#EFEFEF" stop-opacity="0"/>
</linearGradient>
<linearGradient id="paint2_linear_3534_9131" x1="1285.5" y1="1843" x2="1272" y2="1843" gradientUnits="userSpaceOnUse">
<stop/>
<stop offset="1" stop-opacity="0"/>
</linearGradient>
</defs>
</svg>
